:FULLY-SPECIFIED
:FORCE-ALL-JOINTS-BE-3DOF
:DEGREES
194
root 8.24415 16.5964 -10.1182 7.278 4.23105 -4.00705
lfemur -34.5253 2.65637 -14.9226
ltibia 32.8744 -0 0
lfoot -10.7521 12.7476 0.0476522
ltoes -17.5046 0 0
rfemur -5.3234 4.11978 30.0032
rtibia 14.9901 -0 0
rfoot -18.4202 4.06038 -0.0810967
rtoes -9.96559 0 0
lowerback -5.59691 1.16252 2.00958
upperback -0.759462 1.3386 3.59671
thorax 2.33367 0.673149 2.72698
lowerneck -16.7956 -6.9233 -14.5798
upperneck 14.3568 -8.69625 15.1146
head 8.57452 -3.55618 6.44427
lclavicle 2.61402e-14 3.18055e-15 0
lhumerus -49.2917 -10.7846 96.8915
lradius 27.4866 -0 0
lwrist 8.984 0 0
lhand -9.35892 -22.5747 0.109421
lfingers 7.12502 -0 0
lthumb 16.5955 6.66117 0.0835061
rclavicle 2.61402e-14 3.18055e-15 0
rhumerus -37.1932 10.9868 -80.7027
rradius 48.8377 -0 0
rwrist -25.4514 0 0
rhand -32.2307 -29.0287 0.00632107
rfingers 7.12502 -0 0
rthumb -5.47127 -58.9288 0.00547998
195
root 8.24499 16.5939 -9.9921 7.27138 4.00371 -4.06634
lfemur -35.3447 2.43038 -14.9775
ltibia 31.8035 -0 0
lfoot -11.2595 12.6407 0.0488377
ltoes -17.5493 0 0
rfemur -4.56945 4.24298 30.1105
rtibia 14.5212 -0 0
rfoot -18.5552 4.10587 -0.0726512
rtoes -9.854 0 0
lowerback -5.65327 1.25337 2.04431
upperback -0.734974 1.45456 3.58802
thorax 2.38701 0.731133 2.70518
lowerneck -16.7422 -6.90057 -14.5711
upperneck 14.3931 -8.67686 15.1087
head 8.57365 -3.54907 6.44566
lclavicle 2.61402e-14 3.18055e-15 0
lhumerus -49.3343 -10.7623 96.8563
lradius 27.5575 -0 0
lwrist 9.11581 0 0
lhand -9.69805 -22.7392 0.100842
lfingers 7.12502 -0 0
lthumb 16.2695 6.52994 0.0769971
rclavicle 2.61402e-14 3.18055e-15 0
rhumerus -36.9614 11.011 -80.6977
rradius 49.2841 -0 0
rwrist -25.6579 0 0
rhand -32.3621 -29.071 0.00450318
rfingers 7.12502 -0 0
rthumb -5.59815 -58.9688 0.00379072
196
root 8.24584 16.5913 -9.86599 7.26711 3.77766 -4.12158
lfemur -36.1389 2.21735 -15.0335
ltibia 30.7786 -0 0
lfoot -11.7463 12.5323 0.0488873
ltoes -17.5803 0 0
rfemur -3.83249 4.35753 30.2082
rtibia 14.081 -0 0
rfoot -18.6654 4.1501 -0.0642213
rtoes -9.75048 0 0
lowerback -5.70808 1.34149 2.0757
upperback -0.713038 1.56722 3.57839
thorax 2.43694 0.787482 2.684
lowerneck -16.6919 -6.87793 -14.5621
upperneck 14.4304 -8.65724 15.1027
head 8.5736 -3.54174 6.44697
lclavicle 2.61402e-14 3.18055e-15 0
lhumerus -49.3723 -10.7368 96.816
lradius 27.6205 -0 0
lwrist 9.2312 0 0
lhand -10.0232 -22.8976 0.0915859
lfingers 7.12502 -0 0
lthumb 15.9569 6.40352 0.0699649
rclavicle 2.61402e-14 3.18055e-15 0
rhumerus -36.7451 11.0328 -80.6974
rradius 49.7081 -0 0
rwrist -25.8542 0 0
rhand -32.4864 -29.1072 0.00279341
rfingers 7.12502 -0 0
rthumb -5.71821 -59.0027 0.0022074
197
root 8.24668 16.5888 -9.73989 7.26539 3.55339 -4.17268
lfemur -36.9061 2.01882 -15.0909
ltibia 29.8056 -0 0
lfoot -12.2099 12.4229 0.047823
ltoes -17.5968 0 0
rfemur -3.11424 4.46254 30.2956
rtibia 13.672 -0 0
rfoot -18.7486 4.19338 -0.0558898
rtoes -9.65548 0 0
lowerback -5.76104 1.42665 2.1037
upperback -0.693862 1.67628 3.56781
thorax 2.48306 0.842052 2.66344
lowerneck -16.645 -6.85546 -14.5531
upperneck 14.4683 -8.63746 15.0965
head 8.57439 -3.53419 6.44824
lclavicle 2.61402e-14 3.18055e-15 0
lhumerus -49.4059 -10.7077 96.7704
lradius 27.6746 -0 0
lwrist 9.33241 0 0
lhand -10.3327 -23.0491 0.0818086
lfingers 7.12502 -0 0
lthumb 15.6594 6.28253 0.062528
rclavicle 2.61402e-14 3.18055e-15 0
rhumerus -36.5457 11.0519 -80.702
rradius 50.1075 -0 0
rwrist -26.0394 0 0
rhand -32.603 -29.1367 0.00123322
rfingers 7.12502 -0 0
rthumb -5.8308 -59.0302 0.000768835
198
root 8.24753 16.5863 -9.61379 7.26639 3.33136 -4.21953
lfemur -37.6446 1.83633 -15.15
ltibia 28.8905 -0 0
lfoot -12.648 12.313 0.0456852
ltoes -17.5983 0 0
rfemur -2.41643 4.55715 30.3722
rtibia 13.2967 -0 0
rfoot -18.8029 4.23603 -0.0477404
rtoes -9.56943 0 0
lowerback -5.81186 1.50861 2.12826
upperback -0.677653 1.78146 3.55624
thorax 2.52499 0.894699 2.6435
lowerneck -16.6019 -6.83325 -14.544
upperneck 14.5068 -8.61762 15.0903
head 8.576 -3.52646 6.44948
lclavicle 2.61402e-14 3.18055e-15 0
lhumerus -49.4351 -10.6743 96.7191
lradius 27.7189 -0 0
lwrist 9.40706 0 0
lhand -10.625 -23.1929 0.0716775
lfingers 7.12502 -0 0
lthumb 15.3784 6.16759 0.0548142
rclavicle 2.61402e-14 3.18055e-15 0
rhumerus -36.3644 11.0684 -80.7118
rradius 50.4805 -0 0
rwrist -26.2126 0 0
rhand -32.7113 -29.1593 -0.000136397
rfingers 7.12502 -0 0
rthumb -5.93529 -59.0509 -0.000486616
199
root 8.24837 16.5838 -9.48768 7.27031 3.11205 -4.26201
lfemur -38.3525 1.67143 -15.2113
ltibia 28.0396 -0 0
lfoot -13.0579 12.203 0.042532
ltoes -17.5839 0 0
rfemur -1.74077 4.64047 30.4372
rtibia 12.9577 -0 0
rfoot -18.826 4.27834 -0.0398581
rtoes -9.49279 0 0
lowerback -5.86027 1.58712 2.14934
upperback -0.664616 1.88247 3.54367
thorax 2.56235 0.94528 2.6242
lowerneck -16.5626 -6.81138 -14.5348
upperneck 14.5457 -8.59779 15.0843
head 8.57843 -3.51857 6.45071
lclavicle 2.61402e-14 3.18055e-15 0
lhumerus -49.4602 -10.6361 96.6617
lradius 27.7522 -0 0
lwrist 9.46471 0 0
lhand -10.8984 -23.3283 0.0613702
lfingers 7.12502 -0 0
lthumb 15.1156 6.0593 0.0469587
rclavicle 2.61402e-14 3.18055e-15 0
rhumerus -36.2024 11.0821 -80.7271
rradius 50.825 -0 0
rwrist -26.3729 0 0
rhand -32.8104 -29.1746 -0.00127551
rfingers 7.12502 -0 0
rthumb -6.03104 -59.0644 -0.00152168
200
root 8.24922 16.5812 -9.36158 7.27732 2.89594 -4.30003
lfemur -39.0282 1.52566 -15.2752
ltibia 27.2587 -0 0
lfoot -13.4372 12.0935 0.0384376
ltoes -17.5529 0 0
rfemur -1.089 4.71164 30.4901
rtibia 12.6576 -0 0
rfoot -18.816 4.32064 -0.0323302
rtoes -9.42599 0 0
lowerback -5.90596 1.66196 2.16689
upperback -0.654959 1.97903 3.53009
thorax 2.59476 0.993649 2.60552
lowerneck -16.5276 -6.78995 -14.5257
upperneck 14.5847 -8.57806 15.0785
head 8.58168 -3.51054 6.45197
lclavicle 2.61402e-14 3.18055e-15 0
lhumerus -49.4813 -10.5924 96.598
lradius 27.7735 -0 0
lwrist 9.5003 0 0
lhand -11.1512 -23.4545 0.0510712
lfingers 7.12502 -0 0
lthumb 14.8725 5.95828 0.0391021
rclavicle 2.61402e-14 3.18055e-15 0
rhumerus -36.061 11.0929 -80.7481
rradius 51.1392 -0 0
rwrist -26.5195 0 0
rhand -32.8999 -29.1824 -0.00214596
rfingers 7.12502 -0 0
rthumb -6.11742 -59.0706 -0.0023008
201
root 8.25006 16.5787 -9.23548 7.2876 2.68348 -4.33347
lfemur -39.6698 1.40057 -15.3421
ltibia 26.554 -0 0
lfoot -13.7835 11.9848 0.0334919
ltoes -17.5047 0 0
rfemur -0.462838 4.76981 30.5301
rtibia 12.3987 -0 0
rfoot -18.7707 4.36322 -0.025247
rtoes -9.36948 0 0
lowerback -5.94867 1.73289 2.18088
upperback -0.648887 2.07085 3.51547
thorax 2.62184 1.03966 2.58747
lowerneck -16.4969 -6.76905 -14.5167
upperneck 14.6237 -8.55851 15.0731
head 8.58573 -3.50238 6.45328
lclavicle 2.61402e-14 3.18055e-15 0
lhumerus -49.4985 -10.5427 96.5276
lradius 27.7843 -0 0
lwrist 9.51227 0 0
lhand -11.3819 -23.5707 0.0409698
lfingers 7.12502 -0 0
lthumb 14.6508 5.86514 0.031389
rclavicle 2.61402e-14 3.18055e-15 0
rhumerus -35.9413 11.1007 -80.7752
rradius 51.421 -0 0
rwrist -26.6515 0 0
rhand -32.9789 -29.1821 -0.00271206
rfingers 7.12502 -0 0
rthumb -6.19378 -59.0689 -0.00279076
202
root 8.25091 16.5762 -9.10937 7.30134 2.47516 -4.36224
lfemur -40.2755 1.29772 -15.4123
ltibia 25.9315 -0 0
lfoot -14.0942 11.8774 0.0277982
ltoes -17.4385 0 0
rfemur 0.135994 4.8141 30.5566
rtibia 12.1838 -0 0
rfoot -18.688 4.4064 -0.0187026
rtoes -9.32369 0 0
lowerback -5.98809 1.79966 2.19126
upperback -0.646607 2.15764 3.49978
thorax 2.6432 1.08318 2.57004
lowerneck -16.4709 -6.74876 -14.5077
upperneck 14.6624 -8.53921 15.0681
head 8.5906 -3.49413 6.45466
lclavicle 2.61402e-14 3.18055e-15 0
lhumerus -49.512 -10.4864 96.4502
lradius 27.7762 -0 0
lwrist 9.49965 0 0
lhand -11.5887 -23.6761 0.0312569
lfingers 7.12502 -0 0
lthumb 14.4519 5.78049 0.0239652
rclavicle 2.61402e-14 3.18055e-15 0
rhumerus -35.8446 11.1055 -80.8086
rradius 51.6684 -0 0
rwrist -26.7678 0 0
rhand -33.047 -29.1735 -0.00294137
rfingers 7.12502 -0 0
rthumb -6.25949 -59.0592 -0.00296147
203
root 8.25175 16.5737 -8.98327 7.31871 2.27144 -4.38622
lfemur -40.8436 1.21866 -15.4865
ltibia 25.3972 -0 0
lfoot -14.3668 11.7718 0.0214722
ltoes -17.3536 0 0
rfemur 0.705785 4.84364 30.5688
rtibia 12.0153 -0 0
rfoot -18.5658 4.45048 -0.0127965
rtoes -9.28908 0 0
lowerback -6.02395 1.86204 2.198
upperback -0.648325 2.23911 3.48302
thorax 2.65847 1.12405 2.55325
lowerneck -16.4499 -6.72918 -14.499
upperneck 14.7008 -8.52025 15.0636
head 8.59627 -3.4858 6.45614
lclavicle 2.61402e-14 3.18055e-15 0
lhumerus -49.522 -10.4229 96.3654
lradius 27.7554 -0 0
lwrist 9.46059 0 0
lhand -11.7701 -23.7701 0.0221223
lfingers 7.12502 -0 0
lthumb 14.2776 5.70493 0.0169758
rclavicle 2.61402e-14 3.18055e-15 0
rhumerus -35.7721 11.1071 -80.8486
rradius 51.8796 -0 0
rwrist -26.8678 0 0
rhand -33.1033 -29.1563 -0.00280545
rfingers 7.12502 -0 0
rthumb -6.3139 -59.041 -0.00278663
204
root 8.2526 16.5711 -8.85717 7.33989 2.07279 -4.40532
lfemur -41.3724 1.16496 -15.5649
ltibia 24.9573 -0 0
lfoot -14.5989 11.6685 0.0146398
ltoes -17.2494 0 0
rfemur 1.24483 4.85755 30.5662
rtibia 11.8958 -0 0
rfoot -18.402 4.49578 -0.00763393
rtoes -9.26608 0 0
lowerback -6.05594 1.9198 2.20104
upperback -0.654244 2.31498 3.46517
thorax 2.66726 1.16213 2.53708
lowerneck -16.4339 -6.71038 -14.4904
upperneck 14.7385 -8.50172 15.0599
head 8.60274 -3.47742 6.45773
lclavicle 2.61402e-14 3.18055e-15 0
lhumerus -49.5286 -10.3516 96.2729
lradius 27.7186 -0 0
lwrist 9.39384 0 0
lhand -11.9245 -23.8518 0.0137516
lfingers 7.12502 -0 0
lthumb 14.1292 5.63907 0.0105626
rclavicle 2.61402e-14 3.18055e-15 0
rhumerus -35.7251 11.1053 -80.8954
rradius 52.0525 -0 0
rwrist -26.9505 0 0
rhand -33.1473 -29.1301 -0.00228071
rfingers 7.12502 -0 0
rthumb -6.35638 -59.0141 -0.00224457
205
root 8.25344 16.5686 -8.73106 7.36507 1.87969 -4.41942
lfemur -41.86 1.1382 -15.6479
ltibia 24.6177 -0 0
lfoot -14.7879 11.5678 0.00743561
ltoes -17.125 0 0
rfemur 1.75144 4.85495 30.548
rtibia 11.8277 -0 0
rfoot -18.1946 4.54258 -0.00332786
rtoes -9.25562 0 0
lowerback -6.08378 1.9727 2.20036
upperback -0.66457 2.38496 3.44619
thorax 2.66919 1.19727 2.52154
lowerneck -16.4234 -6.69246 -14.4821
upperneck 14.7753 -8.4837 15.0569
head 8.61 -3.469 6.45947
lclavicle 2.61402e-14 3.18055e-15 0
lhumerus -49.532 -10.2719 96.1723
lradius 27.6647 -0 0
lwrist 9.29797 0 0
lhand -12.0501 -23.9205 0.00632216
lfingers 7.12502 -0 0
lthumb 14.0085 5.58353 0.00486161
rclavicle 2.61402e-14 3.18055e-15 0
rhumerus -35.7047 11.1002 -80.9494
rradius 52.1852 -0 0
rwrist -27.0149 0 0
rhand -33.1783 -29.0945 -0.0013493
rfingers 7.12502 -0 0
rthumb -6.3863 -58.978 -0.00131901
206
root 8.25429 16.5661 -8.60496 7.39442 1.69259 -4.42843
lfemur -42.3047 1.13996 -15.736
ltibia 24.3845 0 0
lfoot -14.9314 11.4703 0
ltoes -16.9798 0 0
rfemur 2.22393 4.83492 30.5135
rtibia 11.8137 0 0
rfoot -17.9414 4.59121 0
rtoes -9.2567 0 0
lowerback -6.10719 2.02051 2.1959
upperback -0.679507 2.44875 3.42609
thorax 2.66388 1.22934 2.50663
lowerneck -16.4185 -6.67551 -14.4741
upperneck 14.8112 -8.46627 15.0548
head 8.61805 -3.46058 6.46138
lclavicle 2.61402e-14 3.18055e-15 0
lhumerus -49.5323 -10.1832 96.0635
lradius 27.5926 0 0
lwrist 9.17158 0 0
lhand -12.1454 -23.9754 0
lfingers 7.12502 0 0
lthumb 13.9169 5.5389 0
rclavicle 2.61402e-14 3.18055e-15 0
rhumerus -35.7123 11.0914 -81.0107
rradius 52.2757 0 0
rwrist -27.0603 0 0
rhand -33.1956 -29.0492 0
rfingers 7.12502 0 0
rthumb -6.403 -58.9325 0
